<mxfile host="app.diagrams.net" modified="2022-07-03T16:12:12.596Z" agent="5.0 (Macintosh; Intel Mac OS X 10_15_7) AppleWebKit/537.36 (KHTML, like Gecko) Chrome/103.0.0.0 Safari/537.36" etag="dUuYDZjgJK1HEm2UID3f" version="20.0.4" type="github">
  <diagram id="2KnrFQ9Z0V7uoiKfAL4g" name="Page-1">
    <mxGraphModel dx="946" dy="1782" grid="1" gridSize="10" guides="1" tooltips="1" connect="1" arrows="1" fold="1" page="1" pageScale="1" pageWidth="827" pageHeight="1169" math="0" shadow="0">
      <root>
        <mxCell id="0" />
        <mxCell id="1" parent="0" />
        <mxCell id="kHu39sgshsZM4ldxTO4M-22" value="&lt;font style=&quot;font-size: 20px;&quot;&gt;运动神经核&lt;/font&gt;" style="rounded=0;whiteSpace=wrap;html=1;strokeWidth=2;verticalAlign=bottom;" parent="1" vertex="1">
          <mxGeometry x="510" y="250" width="340" height="400" as="geometry" />
        </mxCell>
        <mxCell id="kHu39sgshsZM4ldxTO4M-25" value="" style="rounded=0;whiteSpace=wrap;html=1;strokeWidth=2;verticalAlign=bottom;fillColor=#dae8fc;strokeColor=#6c8ebf;" parent="1" vertex="1">
          <mxGeometry x="530" y="360" width="300" height="250" as="geometry" />
        </mxCell>
        <mxCell id="kHu39sgshsZM4ldxTO4M-35" style="edgeStyle=orthogonalEdgeStyle;rounded=0;orthogonalLoop=1;jettySize=auto;html=1;exitX=0;exitY=0.5;exitDx=0;exitDy=0;entryX=1;entryY=0.5;entryDx=0;entryDy=0;fontSize=16;startArrow=none;startFill=0;strokeWidth=2;" parent="1" source="kHu39sgshsZM4ldxTO4M-14" target="kHu39sgshsZM4ldxTO4M-2" edge="1">
          <mxGeometry relative="1" as="geometry" />
        </mxCell>
        <mxCell id="kHu39sgshsZM4ldxTO4M-14" value="&lt;font style=&quot;font-size: 16px;&quot;&gt;第二级运动神经元&lt;br&gt;（V, VII, IX, XII, C1, C2）&lt;/font&gt;" style="rounded=0;whiteSpace=wrap;html=1;strokeWidth=2;fillColor=#dae8fc;strokeColor=#6c8ebf;" parent="1" vertex="1">
          <mxGeometry x="550" y="470" width="260" height="70" as="geometry" />
        </mxCell>
        <mxCell id="kHu39sgshsZM4ldxTO4M-21" value="" style="rounded=0;whiteSpace=wrap;html=1;strokeWidth=2;fillColor=#f5f5f5;fontColor=#333333;strokeColor=#666666;" parent="1" vertex="1">
          <mxGeometry x="540" y="310" width="260" height="100" as="geometry" />
        </mxCell>
        <mxCell id="kHu39sgshsZM4ldxTO4M-10" value="" style="rounded=0;whiteSpace=wrap;html=1;strokeWidth=2;" parent="1" vertex="1">
          <mxGeometry x="290" y="-10" width="560" height="250" as="geometry" />
        </mxCell>
        <mxCell id="kHu39sgshsZM4ldxTO4M-12" value="" style="rounded=0;whiteSpace=wrap;html=1;fillColor=#dae8fc;strokeColor=#6c8ebf;" parent="1" vertex="1">
          <mxGeometry x="340" width="480" height="130" as="geometry" />
        </mxCell>
        <mxCell id="kHu39sgshsZM4ldxTO4M-34" style="edgeStyle=orthogonalEdgeStyle;rounded=0;orthogonalLoop=1;jettySize=auto;html=1;exitX=1;exitY=0.5;exitDx=0;exitDy=0;entryX=0;entryY=0.5;entryDx=0;entryDy=0;fontSize=16;startArrow=none;startFill=0;strokeWidth=2;" parent="1" source="kHu39sgshsZM4ldxTO4M-1" target="kHu39sgshsZM4ldxTO4M-3" edge="1">
          <mxGeometry relative="1" as="geometry" />
        </mxCell>
        <mxCell id="kHu39sgshsZM4ldxTO4M-1" value="&lt;font style=&quot;font-size: 14px;&quot;&gt;感觉输入：&lt;br&gt;口咽、喉、食管&lt;/font&gt;" style="rounded=0;whiteSpace=wrap;html=1;align=center;fillColor=#d5e8d4;strokeColor=#82b366;" parent="1" vertex="1">
          <mxGeometry x="30" y="315" width="190" height="60" as="geometry" />
        </mxCell>
        <mxCell id="kHu39sgshsZM4ldxTO4M-2" value="&lt;font style=&quot;font-size: 14px;&quot;&gt;运动输出：&lt;br&gt;口咽吞咽反应&lt;/font&gt;" style="rounded=0;whiteSpace=wrap;html=1;align=center;fillColor=#dae8fc;strokeColor=#6c8ebf;" parent="1" vertex="1">
          <mxGeometry x="30" y="475" width="190" height="60" as="geometry" />
        </mxCell>
        <mxCell id="kHu39sgshsZM4ldxTO4M-33" style="edgeStyle=orthogonalEdgeStyle;rounded=0;orthogonalLoop=1;jettySize=auto;html=1;exitX=0.25;exitY=0;exitDx=0;exitDy=0;entryX=0.035;entryY=1.013;entryDx=0;entryDy=0;fontSize=16;startArrow=none;startFill=0;strokeWidth=2;entryPerimeter=0;" parent="1" source="kHu39sgshsZM4ldxTO4M-3" target="kHu39sgshsZM4ldxTO4M-8" edge="1">
          <mxGeometry relative="1" as="geometry" />
        </mxCell>
        <mxCell id="kHu39sgshsZM4ldxTO4M-39" style="edgeStyle=orthogonalEdgeStyle;rounded=0;orthogonalLoop=1;jettySize=auto;html=1;exitX=1;exitY=0.5;exitDx=0;exitDy=0;entryX=0;entryY=0.25;entryDx=0;entryDy=0;fontSize=14;startArrow=none;startFill=0;strokeWidth=2;" parent="1" source="kHu39sgshsZM4ldxTO4M-3" target="kHu39sgshsZM4ldxTO4M-4" edge="1">
          <mxGeometry relative="1" as="geometry" />
        </mxCell>
        <mxCell id="kHu39sgshsZM4ldxTO4M-3" value="&lt;b&gt;感觉神经：&lt;br&gt;(V, VII, IX, X)&lt;/b&gt;" style="rounded=0;whiteSpace=wrap;html=1;align=center;fillColor=#d5e8d4;strokeColor=#82b366;" parent="1" vertex="1">
          <mxGeometry x="310" y="310" width="190" height="70" as="geometry" />
        </mxCell>
        <mxCell id="kHu39sgshsZM4ldxTO4M-23" style="edgeStyle=orthogonalEdgeStyle;rounded=0;orthogonalLoop=1;jettySize=auto;html=1;exitX=0.5;exitY=1;exitDx=0;exitDy=0;fontSize=16;strokeWidth=2;dashed=1;" parent="1" source="kHu39sgshsZM4ldxTO4M-4" edge="1">
          <mxGeometry relative="1" as="geometry">
            <mxPoint x="605" y="470" as="targetPoint" />
            <Array as="points">
              <mxPoint x="605" y="470" />
            </Array>
          </mxGeometry>
        </mxCell>
        <mxCell id="kHu39sgshsZM4ldxTO4M-4" value="背侧组&lt;br&gt;&lt;br&gt;&lt;div style=&quot;&quot;&gt;&lt;span style=&quot;background-color: initial;&quot;&gt;腹侧组&lt;/span&gt;&lt;/div&gt;" style="rounded=0;whiteSpace=wrap;html=1;align=center;" parent="1" vertex="1">
          <mxGeometry x="565" y="325" width="80" height="60" as="geometry" />
        </mxCell>
        <mxCell id="kHu39sgshsZM4ldxTO4M-5" value="&lt;b&gt;中枢模式&lt;br&gt;发生器&lt;/b&gt;" style="rounded=0;whiteSpace=wrap;html=1;align=center;" parent="1" vertex="1">
          <mxGeometry x="687.5" y="325" width="90" height="60" as="geometry" />
        </mxCell>
        <mxCell id="kHu39sgshsZM4ldxTO4M-6" value="" style="endArrow=none;dashed=1;html=1;rounded=0;exitX=0;exitY=0.5;exitDx=0;exitDy=0;entryX=1;entryY=0.5;entryDx=0;entryDy=0;" parent="1" source="kHu39sgshsZM4ldxTO4M-4" target="kHu39sgshsZM4ldxTO4M-4" edge="1">
          <mxGeometry width="50" height="50" relative="1" as="geometry">
            <mxPoint x="540" y="505" as="sourcePoint" />
            <mxPoint x="590" y="455" as="targetPoint" />
          </mxGeometry>
        </mxCell>
        <mxCell id="kHu39sgshsZM4ldxTO4M-7" value="皮质" style="rounded=0;whiteSpace=wrap;html=1;align=center;fontStyle=1;fillColor=#d5e8d4;strokeColor=#82b366;" parent="1" vertex="1">
          <mxGeometry x="350" y="10" width="460" height="40" as="geometry" />
        </mxCell>
        <mxCell id="kHu39sgshsZM4ldxTO4M-26" style="rounded=0;orthogonalLoop=1;jettySize=auto;html=1;exitX=0.5;exitY=1;exitDx=0;exitDy=0;fontSize=16;strokeWidth=2;entryX=0.25;entryY=0;entryDx=0;entryDy=0;dashed=1;edgeStyle=orthogonalEdgeStyle;" parent="1" source="kHu39sgshsZM4ldxTO4M-8" target="kHu39sgshsZM4ldxTO4M-11" edge="1">
          <mxGeometry relative="1" as="geometry" />
        </mxCell>
        <mxCell id="kHu39sgshsZM4ldxTO4M-8" value="感觉" style="rounded=0;whiteSpace=wrap;html=1;align=center;fontStyle=1;fillColor=#d5e8d4;strokeColor=#82b366;" parent="1" vertex="1">
          <mxGeometry x="350" y="60" width="210" height="40" as="geometry" />
        </mxCell>
        <mxCell id="kHu39sgshsZM4ldxTO4M-19" style="edgeStyle=orthogonalEdgeStyle;rounded=0;orthogonalLoop=1;jettySize=auto;html=1;exitX=0.5;exitY=1;exitDx=0;exitDy=0;entryX=1;entryY=0.25;entryDx=0;entryDy=0;dashed=1;" parent="1" source="kHu39sgshsZM4ldxTO4M-9" target="kHu39sgshsZM4ldxTO4M-4" edge="1">
          <mxGeometry relative="1" as="geometry">
            <Array as="points">
              <mxPoint x="660" y="120" />
              <mxPoint x="660" y="340" />
            </Array>
          </mxGeometry>
        </mxCell>
        <mxCell id="kHu39sgshsZM4ldxTO4M-24" style="edgeStyle=orthogonalEdgeStyle;rounded=0;orthogonalLoop=1;jettySize=auto;html=1;exitX=0.5;exitY=1;exitDx=0;exitDy=0;entryX=0.5;entryY=0;entryDx=0;entryDy=0;fontSize=16;strokeWidth=2;" parent="1" source="kHu39sgshsZM4ldxTO4M-9" target="kHu39sgshsZM4ldxTO4M-14" edge="1">
          <mxGeometry relative="1" as="geometry">
            <Array as="points">
              <mxPoint x="680" y="120" />
            </Array>
          </mxGeometry>
        </mxCell>
        <mxCell id="kHu39sgshsZM4ldxTO4M-29" style="edgeStyle=orthogonalEdgeStyle;rounded=0;orthogonalLoop=1;jettySize=auto;html=1;exitX=0.141;exitY=1.021;exitDx=0;exitDy=0;entryX=0.75;entryY=0;entryDx=0;entryDy=0;dashed=1;fontSize=16;startArrow=none;startFill=0;strokeWidth=2;exitPerimeter=0;" parent="1" source="kHu39sgshsZM4ldxTO4M-9" target="kHu39sgshsZM4ldxTO4M-11" edge="1">
          <mxGeometry relative="1" as="geometry" />
        </mxCell>
        <mxCell id="kHu39sgshsZM4ldxTO4M-31" style="edgeStyle=orthogonalEdgeStyle;rounded=0;orthogonalLoop=1;jettySize=auto;html=1;exitX=0.5;exitY=1;exitDx=0;exitDy=0;entryX=1;entryY=0.75;entryDx=0;entryDy=0;dashed=1;fontSize=16;startArrow=none;startFill=0;strokeWidth=1;" parent="1" source="kHu39sgshsZM4ldxTO4M-9" target="kHu39sgshsZM4ldxTO4M-4" edge="1">
          <mxGeometry relative="1" as="geometry">
            <Array as="points">
              <mxPoint x="670" y="120" />
              <mxPoint x="670" y="370" />
            </Array>
          </mxGeometry>
        </mxCell>
        <mxCell id="kHu39sgshsZM4ldxTO4M-9" value="运动&lt;br&gt;&lt;br&gt;第一级运动神经元" style="rounded=0;whiteSpace=wrap;html=1;align=center;fontStyle=1;fillColor=#dae8fc;strokeColor=#6c8ebf;" parent="1" vertex="1">
          <mxGeometry x="570" y="60" width="240" height="60" as="geometry" />
        </mxCell>
        <mxCell id="kHu39sgshsZM4ldxTO4M-27" style="edgeStyle=orthogonalEdgeStyle;rounded=0;orthogonalLoop=1;jettySize=auto;html=1;exitX=0.25;exitY=1;exitDx=0;exitDy=0;entryX=0.75;entryY=0;entryDx=0;entryDy=0;dashed=1;fontSize=16;strokeWidth=2;startArrow=classic;startFill=1;" parent="1" source="kHu39sgshsZM4ldxTO4M-11" target="kHu39sgshsZM4ldxTO4M-3" edge="1">
          <mxGeometry relative="1" as="geometry" />
        </mxCell>
        <mxCell id="kHu39sgshsZM4ldxTO4M-30" style="edgeStyle=orthogonalEdgeStyle;rounded=0;orthogonalLoop=1;jettySize=auto;html=1;exitX=0.75;exitY=1;exitDx=0;exitDy=0;dashed=1;fontSize=16;startArrow=classic;startFill=1;strokeWidth=2;" parent="1" source="kHu39sgshsZM4ldxTO4M-11" edge="1">
          <mxGeometry relative="1" as="geometry">
            <mxPoint x="578" y="310" as="targetPoint" />
            <Array as="points">
              <mxPoint x="578" y="311" />
            </Array>
          </mxGeometry>
        </mxCell>
        <mxCell id="kHu39sgshsZM4ldxTO4M-11" value="皮质下结构" style="rounded=0;whiteSpace=wrap;html=1;align=center;" parent="1" vertex="1">
          <mxGeometry x="390" y="160" width="250" height="30" as="geometry" />
        </mxCell>
        <mxCell id="kHu39sgshsZM4ldxTO4M-13" value="大脑" style="rounded=0;whiteSpace=wrap;html=1;gradientColor=none;fillColor=#FFFFFF;strokeWidth=1;dashed=1;opacity=0;fontStyle=1" parent="1" vertex="1">
          <mxGeometry x="770" y="200" width="80" height="40" as="geometry" />
        </mxCell>
        <mxCell id="kHu39sgshsZM4ldxTO4M-15" value="脑干" style="rounded=0;whiteSpace=wrap;html=1;gradientColor=none;fillColor=#FFFFFF;strokeWidth=1;dashed=1;opacity=0;fontStyle=1" parent="1" vertex="1">
          <mxGeometry x="770" y="250" width="80" height="40" as="geometry" />
        </mxCell>
        <mxCell id="kHu39sgshsZM4ldxTO4M-36" value="" style="endArrow=none;dashed=1;html=1;rounded=0;fontSize=16;strokeWidth=2;exitX=0.5;exitY=0;exitDx=0;exitDy=0;" parent="1" source="kHu39sgshsZM4ldxTO4M-37" edge="1">
          <mxGeometry width="50" height="50" relative="1" as="geometry">
            <mxPoint x="230" y="600" as="sourcePoint" />
            <mxPoint x="240" y="-10" as="targetPoint" />
          </mxGeometry>
        </mxCell>
        <mxCell id="kHu39sgshsZM4ldxTO4M-37" value="&lt;font style=&quot;font-size: 16px;&quot;&gt;传出通路&lt;/font&gt;" style="rounded=0;whiteSpace=wrap;html=1;gradientColor=none;fillColor=#FFFFFF;strokeWidth=1;dashed=1;opacity=0;" parent="1" vertex="1">
          <mxGeometry x="200" y="580" width="80" height="40" as="geometry" />
        </mxCell>
        <mxCell id="kHu39sgshsZM4ldxTO4M-38" value="&lt;font style=&quot;font-size: 16px;&quot;&gt;传入通路&lt;/font&gt;" style="rounded=0;whiteSpace=wrap;html=1;gradientColor=none;fillColor=#FFFFFF;strokeWidth=1;dashed=1;opacity=0;" parent="1" vertex="1">
          <mxGeometry x="200" y="380" width="80" height="40" as="geometry" />
        </mxCell>
      </root>
    </mxGraphModel>
  </diagram>
</mxfile>
